<?xml version="1.0" encoding="utf-8"?>
<!-- Generator: Adobe Illustrator 16.0.0, SVG Export Plug-In . SVG Version: 6.00 Build 0)  -->
<!DOCTYPE svg PUBLIC "-//W3C//DTD SVG 1.1//EN" "http://www.w3.org/Graphics/SVG/1.1/DTD/svg11.dtd">
<svg version="1.1" id="Layer_1" xmlns="http://www.w3.org/2000/svg" xmlns:xlink="http://www.w3.org/1999/xlink" x="0px" y="0px"
	 width="360px" height="360px" viewBox="0 0 360 360" enable-background="new 0 0 360 360" xml:space="preserve">
<g transform="translate(0 1)">
	<g>
		<g>
			<path fill="#666666" d="M6,356.75c-2.93,0-4.75-1.82-4.75-4.75v-25.801c0-12.387,6.624-23.219,17.286-28.271
				c36.227-19.21,63.167-29.57,87.401-33.617l1.994-0.334l-3.72-5.113c-0.917-1.378-0.959-2.821-0.961-3.912l5.725-22.897
				l-0.332-0.468c-10.58-14.956-17.966-32.383-21.359-50.396l-0.329-1.747l-1.533,0.9c-2.679,1.574-5.66,2.406-8.622,2.406h-9
				c-10.055,0-18.55-8.22-18.55-17.951v-45c0-9.486,7.436-17.355,16.929-17.916l1.132-0.067l0.043-1.134
				c0.664-17.419,4.795-42.594,20.706-63.608C107.063,11.976,137.997-0.75,180-0.75c42.003,0,72.936,12.726,91.939,37.823
				c15.91,21.014,20.042,46.188,20.706,63.607l0.043,1.136l1.135,0.064c9.334,0.531,16.927,8.57,16.927,17.919v45
				c0,9.234-7.835,17.443-17.11,17.926l-1.071,0.056l-0.107,1.067c-1.881,18.744-12.915,30.933-34.725,38.355l-0.439,0.149
				l-0.235,0.4c-1.78,3.027-3.7,5.999-5.705,8.833l-0.331,0.468l5.762,23.048c0.438,1.324,0.102,2.641-0.87,3.613l-0.069,0.069
				l-3.778,5.194l1.994,0.333c24.229,4.044,51.168,14.404,87.351,33.591c10.523,5.847,17.336,16.958,17.335,28.297V352
				c0,2.93-1.819,4.75-4.749,4.75H6z M209.161,322.979l4.854,24.271H349.25v-21.051c0-8.309-4.493-15.89-12.02-20.279
				c-36.631-19.189-65.327-29.873-90.356-33.65l-0.751-0.113L209.161,322.979z M155.915,347.25h48.052l-4.001-20.5h-39.951
				L155.915,347.25z M113.547,272.799c-24.641,3.06-52.624,13.452-90.733,33.697c-7.431,3.715-12.063,11.271-12.063,19.703v21.051
				h135.235l4.854-24.271l-36.56-50.271L113.547,272.799z M163.476,317.25h32.833l-16.266-37.275L163.476,317.25z M242.084,243.149
				c-0.803,0.865-1.618,1.709-2.44,2.538c-14.767,15.103-32.277,24.267-50.646,26.507l-1.677,0.205l17.74,39.916l9.192-12.622
				l24.96-34.562c0.262-0.391,0.531-0.688,0.849-0.948l0.125-0.102l6.557-9.001l-3.039-13.676L242.084,243.149z M145.744,299.688
				l9.196,12.627l17.74-39.916l-1.677-0.205c-18.369-2.241-35.881-11.405-50.642-26.502c-0.828-0.836-1.642-1.678-2.445-2.543
				l-1.62-1.745l-3.039,13.676l6.999,9.611l0.115,0.098c0.167,0.141,0.327,0.283,0.476,0.428L145.744,299.688z M119.667,229.835
				c8.284,10.342,17.522,18.48,27.458,24.188c9.912,5.539,20.391,8.704,30.319,9.16l0.312,0.014l0.282-0.134
				c0.585-0.278,1.227-0.413,1.962-0.413c0.765,0,1.51,0.147,2.156,0.426l0.266,0.114l0.289-0.015
				c16.407-0.798,33.457-8.703,48.009-22.258c3.391-3.372,6.62-7.096,9.627-11.097l3.917-3.901l-3.99,0.748
				c-14.65,2.746-32.403,4.081-54.273,4.081c-2.93,0-4.749-1.819-4.749-4.749s1.819-4.75,4.749-4.75
				c28.082,0,49.278-2.189,64.802-6.692l0.499-0.145l0.249-0.456c8.963-16.401,13.7-35.059,13.7-53.957v-42
				c0-47.007-38.243-85.25-85.25-85.25S94.75,70.993,94.75,118l0,42c0,24.544,8.064,48.637,22.706,67.841l0.234,0.307l0.436,0.145
				L119.667,229.835z M272.748,181.026c-1.591,8.503-4.105,16.974-7.476,25.175l-1.441,3.508l3.245-1.964
				c9.524-5.763,14.555-13.299,15.83-23.716l0.154-1.255l-1.256-0.14c-2.55-0.284-4.966-1.108-7.181-2.448l-1.544-0.935
				L272.748,181.026z M283.199,110.75c-5.054,0-8.449,4.369-8.449,8.45v45c0,5.055,4.369,8.45,8.449,8.45h9
				c5.055,0,8.45-4.369,8.45-8.45v-45c0-5.054-4.369-8.45-8.45-8.45H283.199z M67.2,110.75c-5.054,0-8.45,4.369-8.45,8.45v45
				c0,5.055,4.369,8.45,8.45,8.45h9c5.055,0,8.45-4.369,8.45-8.45v-45c0-5.054-4.369-8.45-8.45-8.45H67.2z M180,23.25
				c22.593,0,44.512,8.172,61.719,23.01c17.026,14.682,28.336,34.865,31.846,56.832l0.278,1.739l1.55-0.836
				c2.086-1.125,4.318-1.816,6.636-2.053l1.161-0.119l-0.04-1.167c-1.191-35.011-14.202-60.53-38.671-75.85
				C223.284,11.535,197.717,8.75,180,8.75c-17.716,0-43.284,2.785-64.478,16.055c-24.469,15.32-37.48,40.839-38.672,75.849
				l-0.04,1.17l1.166,0.116c2.33,0.231,4.562,0.916,6.634,2.035l1.55,0.836l0.278-1.739c3.514-21.961,14.825-42.14,31.85-56.818
				C135.494,31.419,157.411,23.25,180,23.25z"/>
			<path fill="#FFFFFF" d="M180,0.5c41.591,0,72.188,12.559,90.942,37.328c15.715,20.754,19.797,45.661,20.454,62.9l0.087,2.271
				l2.269,0.129c8.684,0.494,15.748,7.973,15.748,16.671v45c0,8.442-7.441,16.236-15.925,16.677l-2.144,0.112l-0.214,2.135
				c-1.826,18.199-12.593,30.051-33.885,37.298l-0.879,0.299l-0.471,0.8c-1.763,2.997-3.662,5.938-5.647,8.744l-0.663,0.938
				l0.278,1.113l5.623,22.491l0.023,0.093l0.03,0.092c0.382,1.145-0.359,2.005-0.596,2.242l-0.138,0.138l-0.115,0.158l-2.531,3.479
				l-2.38,3.271l3.989,0.666c24.09,4.021,50.913,14.342,86.929,33.439c10.153,5.641,16.714,16.324,16.713,27.216V352
				c0,2.225-1.275,3.5-3.499,3.5H210h-2.4h-55.2H150H6c-2.224,0-3.5-1.275-3.5-3.5v-25.801c0-11.898,6.35-22.299,16.571-27.142
				l0.051-0.023l0.05-0.026c36.052-19.119,62.875-29.439,86.971-33.464l3.989-0.666l-2.379-3.271l-2.497-3.433
				c-0.683-1.046-0.749-2.108-0.755-3.071l5.548-22.188l0.278-1.113l-0.663-0.937c-10.477-14.811-17.791-32.067-21.151-49.906
				l-0.658-3.494l-3.065,1.801c-2.487,1.461-5.25,2.233-7.989,2.233h-9c-9.216,0-17.3-7.804-17.3-16.701v-45
				c0-8.825,6.919-16.147,15.752-16.668l2.264-0.134l0.086-2.267c0.657-17.24,4.739-42.147,20.454-62.901
				C107.811,13.059,138.409,0.5,180,0.5 M87.116,106.748l0.557-3.479c3.467-21.671,14.63-41.583,31.432-56.069
				C136.083,32.562,157.71,24.5,180,24.5c22.293,0,43.922,8.064,60.902,22.707c16.803,14.49,27.964,34.407,31.428,56.082
				l0.556,3.478l3.1-1.671c1.941-1.047,4.018-1.69,6.17-1.911l2.323-0.238l-0.079-2.334c-1.207-35.451-14.415-61.313-39.258-76.867
				C223.696,10.318,197.881,7.5,180,7.5c-17.88,0-43.695,2.818-65.141,16.245C90.017,39.299,76.809,65.16,75.601,100.611
				l-0.08,2.341l2.331,0.231c2.165,0.215,4.238,0.851,6.164,1.891L87.116,106.748 M117.45,229.386l0.47,0.469l0.815,0.815
				c8.371,10.439,17.712,18.66,27.793,24.452c10.067,5.626,20.738,8.846,30.858,9.31l0.624,0.029l0.564-0.269
				c0.414-0.196,0.88-0.292,1.426-0.292c0.596,0,1.17,0.112,1.661,0.323l0.532,0.229l0.578-0.028
				c16.702-0.812,34.033-8.836,48.8-22.593l0.03-0.027l0.028-0.029c3.385-3.365,6.636-7.111,9.664-11.134
				c0.323-0.324,0.647-0.648,0.973-0.973l5.757-5.726l-7.98,1.496c-14.574,2.731-32.252,4.06-54.043,4.06
				c-2.224,0-3.499-1.275-3.499-3.499c0-2.225,1.275-3.5,3.499-3.5c28.201,0,49.512-2.205,65.149-6.741l0.999-0.29l0.498-0.912
				C261.71,197.972,266.5,179.106,266.5,160v-42c0-23.012-9.023-44.709-25.407-61.093C224.709,40.523,203.013,31.5,180,31.5
				c-23.012,0-44.709,9.023-61.093,25.407C102.523,73.291,93.5,94.988,93.5,118v42c0,24.815,8.155,49.178,22.962,68.599l0.468,0.614
				L117.45,229.386 M283.199,173.9h9c5.803,0,9.7-5.016,9.7-9.7v-45c0-5.802-5.016-9.7-9.7-9.7h-9c-5.802,0-9.699,5.016-9.699,9.7
				V160v4.2C273.5,168.884,277.397,173.9,283.199,173.9 M67.2,173.9h9c5.802,0,9.7-5.016,9.7-9.7v-45c0-5.802-5.016-9.7-9.7-9.7h-9
				c-5.802,0-9.7,5.016-9.7,9.7v45C57.5,168.884,61.397,173.9,67.2,173.9 M261.233,212.741l6.489-3.927
				c9.744-5.896,15.116-13.953,16.425-24.634l0.308-2.509l-2.512-0.279c-2.369-0.265-4.613-1.029-6.673-2.275l-3.088-1.869
				l-0.663,3.548c-1.575,8.42-4.065,16.808-7.403,24.93L261.233,212.741 M119.9,266.041l24.835,34.388l7.919,10.873l2.548,3.498
				l1.758-3.954l16.175-36.395l1.372-3.088l-3.354-0.409c-18.084-2.207-35.339-11.244-49.911-26.146
				c-0.9-0.909-1.688-1.729-2.411-2.508l-3.24-3.491l-1.033,4.649l-2.4,10.801l-0.245,1.102l0.664,0.912l6.578,9.033l0.178,0.244
				l0.23,0.194C119.692,265.852,119.803,265.949,119.9,266.041 M204.798,314.801l2.547-3.499l7.924-10.881l24.957-34.557
				l0.027-0.037l0.025-0.038c0.166-0.249,0.354-0.457,0.574-0.638l0.249-0.204l0.189-0.26l6.13-8.415l0.665-0.912l-0.245-1.102
				l-2.4-10.801l-1.033-4.647l-3.239,3.488c-0.748,0.806-1.537,1.626-2.424,2.521c-14.56,14.892-31.814,23.929-49.898,26.135
				l-3.354,0.409l1.373,3.088l16.176,36.395L204.798,314.801 M212.99,348.5h2.05H348h2.5V346v-19.801
				c0-8.758-4.726-16.743-12.64-21.358l-0.05-0.029l-0.05-0.026c-36.708-19.229-65.529-29.953-90.7-33.751l-1.502-0.227
				l-0.893,1.228L208.473,321.8l-0.645,0.887l0.215,1.074l4.546,22.729L212.99,348.5 M22.252,305.378
				C14.385,309.326,9.5,317.301,9.5,326.199V346v2.5H12h132.96h2.049l0.402-2.01l4.545-22.729l0.215-1.074l-0.645-0.887
				l-35.804-49.231l-0.867-1.192l-1.463,0.182C88.6,274.638,60.488,285.069,22.252,305.378 M161.552,318.5h3.847H194.4h3.818
				l-1.527-3.5l-14.367-32.924l-2.27-5.202l-2.306,5.187l-14.634,32.924L161.552,318.5 M154.39,348.5h3.05h45.01h3.035l-0.581-2.979
				l-3.513-18l-0.395-2.021h-2.06H161.04h-2.049l-0.402,2.01l-3.601,18L154.39,348.5 M180-2C82.708-2,67.426,65.975,66.105,100.635
				C56.365,101.21,48,109.388,48,119.799v45C48,175,57,184,67.8,184h9c3.308,0,6.486-0.951,9.255-2.578
				c3.402,18.061,10.911,35.823,21.567,50.887L102,254.799c0,1.201,0,3.001,1.201,4.801l2.53,3.479
				c-24.452,4.084-51.92,14.73-87.73,33.721C6.6,302.2,0,313.6,0,326.199V352c0,3.6,2.4,6,6,6h144h2.399h55.2h2.4h144
				c3.6,0,5.999-2.4,5.999-6v-25.799C360,314.2,352.8,302.8,342,296.8c-35.811-18.989-63.278-29.638-87.73-33.72l2.531-3.479
				c1.199-1.2,1.799-3.001,1.199-4.8l-5.623-22.491c2.038-2.881,3.961-5.859,5.762-8.921c22.359-7.61,33.666-20.475,35.566-39.414
				c9.82-0.512,18.295-9.277,18.295-19.174v-45c0-9.852-7.838-18.583-18.105-19.167C292.573,65.972,277.29-2,180-2L180-2z
				 M85.204,102.875c-2.146-1.159-4.542-1.924-7.104-2.179C80.777,22.073,143.019,10,180,10c36.982,0,99.224,12.073,101.9,90.698
				c-2.516,0.258-4.924,1.022-7.102,2.197C267.498,57.205,227.662,22,180,22C132.344,22,92.513,57.195,85.204,102.875
				L85.204,102.875z M177.501,261.935c-9.939-0.456-20.111-3.606-29.753-8.995c-9.769-5.612-18.958-13.703-27.147-23.939
				c-0.6-0.6-1.2-1.201-1.8-1.801l-0.35-0.116C104.975,209.41,96,186.162,96,160v-42h0c0-46.2,37.8-84,84-84s84,37.8,84,84v42
				c0,19.851-5.168,38.024-13.547,53.357C236.133,217.512,215.53,220,186,220c-3.6,0-5.999,2.399-5.999,6
				c0,3.6,2.399,5.999,5.999,5.999c21.618,0,39.697-1.327,54.504-4.103c-0.369,0.367-0.736,0.735-1.104,1.104
				c-3.02,4.024-6.205,7.693-9.533,11.003c-14.128,13.161-30.979,21.135-47.217,21.925c-0.816-0.352-1.732-0.527-2.65-0.527
				C179.078,261.4,178.247,261.58,177.501,261.935L177.501,261.935z M283.199,171.4c-3.6,0-7.199-3-7.199-7.2V160v-40.8
				c0-3.6,3-7.2,7.199-7.2h9c3.601,0,7.2,3,7.2,7.2v45c0,3.6-3,7.2-7.2,7.2H283.199L283.199,171.4z M67.2,171.4
				c-3.6,0-7.2-3-7.2-7.2v-45c0-3.6,3-7.2,7.2-7.2h9c3.6,0,7.2,3,7.2,7.2v45c0,3.6-3,7.2-7.2,7.2H67.2L67.2,171.4z M266.429,206.676
				c3.384-8.234,5.935-16.793,7.548-25.42c2.285,1.383,4.886,2.309,7.689,2.621C280.627,192.358,276.858,200.365,266.429,206.676
				L266.429,206.676z M205.324,309.83l-16.176-36.395c19.729-2.406,37.297-12.461,51.383-26.868
				c0.832-0.839,1.656-1.692,2.469-2.567l2.4,10.801l-6.13,8.415c-0.391,0.319-0.753,0.708-1.071,1.185l-24.957,34.557
				L205.324,309.83L205.324,309.83z M154.676,309.83l-7.919-10.873L121.799,264.4c-0.191-0.191-0.402-0.381-0.622-0.566
				l-6.578-9.033L117,244c0.812,0.875,1.636,1.727,2.467,2.566c14.086,14.406,31.656,24.462,51.384,26.869L154.676,309.83
				L154.676,309.83z M215.04,346l-4.546-22.729l36.193-49.765c24.438,3.688,52.463,13.877,89.913,33.494
				c7.2,4.199,11.399,11.399,11.399,19.199V346H215.04L215.04,346z M12,346v-19.801c0-7.799,4.2-14.999,11.4-18.6
				c38.245-20.316,65.776-30.515,90.301-33.561l35.804,49.231L144.96,346H12L12,346z M165.399,316l14.634-32.924L194.4,316H165.399
				L165.399,316z M157.439,346l3.601-18h37.896l3.513,18H157.439L157.439,346z"/>
		</g>
	</g>
</g>
<path fill="#EF4123" stroke="#666666" stroke-width="2.5" stroke-miterlimit="10" d="M207.5,228.5c0,6.627-5.373,12-12,12h-17.666
	c-6.628,0-12-5.373-12-12v-1.333c0-6.627,5.373-12,12-12H195.5c6.627,0,12,5.373,12,12V228.5z"/>
</svg>
